<?xml version="1.0" standalone="no"?>
<!DOCTYPE svg PUBLIC "-//W3C//DTD SVG 20010904//EN"
 "http://www.w3.org/TR/2001/REC-SVG-20010904/DTD/svg10.dtd">
<svg version="1.0" xmlns="http://www.w3.org/2000/svg"
 width="700.000000pt" height="700.000000pt" viewBox="0 0 700.000000 700.000000"
 preserveAspectRatio="xMidYMid meet">
<metadata>
Created by potrace 1.11, written by Peter Selinger 2001-2013
</metadata>
<g transform="translate(0.000000,700.000000) scale(0.100000,-0.100000)"
fill="#000000" stroke="none">
<path d="M5078 5895 c-2 -2 -27 -6 -56 -9 -173 -21 -363 -152 -462 -320 l-43
-72 -1866 0 c-1855 0 -1866 0 -1911 -21 -93 -42 -144 -121 -144 -223 -1 -102
51 -181 144 -223 45 -20 59 -21 1907 -21 l1862 0 12 -30 c7 -17 21 -43 31 -58
11 -15 20 -37 21 -47 0 -11 4 -18 7 -16 4 2 17 -10 30 -28 13 -18 30 -36 37
-40 7 -5 10 -13 7 -19 -4 -6 -3 -8 4 -5 5 4 22 -6 35 -23 14 -16 29 -30 34
-30 17 0 68 -53 65 -68 -2 -15 -1 -15 8 1 11 16 13 16 40 0 16 -9 26 -21 23
-26 -3 -6 -1 -7 6 -3 6 4 19 2 28 -6 12 -9 15 -9 9 -1 -5 9 -2 11 8 7 9 -3 16
-9 16 -13 0 -3 16 -7 36 -8 20 -1 42 -7 49 -13 10 -8 15 -8 20 0 4 7 11 7 18
2 17 -13 49 -23 43 -14 -3 5 14 8 37 7 23 -1 57 2 74 6 19 4 30 3 27 -2 -3 -5
0 -9 5 -9 6 0 11 4 11 9 0 13 53 21 64 10 6 -5 15 -9 20 -9 6 0 4 4 -4 10 -18
11 -10 20 22 24 13 1 35 10 48 19 13 9 27 14 32 11 4 -3 11 2 14 10 3 9 10 16
16 16 5 0 6 -6 3 -12 -4 -7 0 -5 8 4 11 14 16 15 26 5 10 -9 11 -9 6 4 -7 18
19 44 35 34 6 -4 9 -1 8 7 -2 7 3 12 10 10 8 -1 11 1 8 6 -6 11 35 48 49 43 6
-1 7 1 2 5 -11 12 23 43 41 37 13 -4 14 -3 3 5 -11 8 -6 20 21 61 19 28 38 48
43 43 5 -4 5 -1 1 5 -4 7 0 28 9 47 l17 34 225 1 c141 1 241 5 265 13 22 6 59
29 82 50 133 116 97 328 -67 398 -46 20 -65 22 -283 21 l-233 -1 -37 65 c-89
160 -253 283 -429 324 -44 10 -190 22 -197 16z"/>
<path d="M5695 4860 c3 -5 8 -10 11 -10 2 0 4 5 4 10 0 6 -5 10 -11 10 -5 0
-7 -4 -4 -10z"/>
<path d="M4599 4753 c-13 -16 -12 -17 4 -4 16 13 21 21 13 21 -2 0 -10 -8 -17
-17z"/>
<path d="M4654 4738 c-4 -7 -3 -10 1 -5 5 4 18 -1 29 -10 21 -18 21 -18 2 5
-22 26 -23 26 -32 10z"/>
<path d="M4720 4680 c-9 -6 -10 -10 -3 -10 6 0 15 5 18 10 8 12 4 12 -15 0z"/>
<path d="M4756 4638 c3 -5 10 -6 15 -3 13 9 11 12 -6 12 -8 0 -12 -4 -9 -9z"/>
<path d="M4813 4629 c-2 -23 3 -25 10 -4 4 8 3 16 -1 19 -4 3 -9 -4 -9 -15z"/>
<path d="M5475 4639 c-3 -4 2 -6 10 -5 21 3 28 13 10 13 -9 0 -18 -4 -20 -8z"/>
<path d="M5350 4600 c0 -5 5 -10 11 -10 5 0 7 5 4 10 -3 6 -8 10 -11 10 -2 0
-4 -4 -4 -10z"/>
<path d="M5385 4600 c-5 -8 42 -7 49 1 3 3 -6 5 -20 5 -14 0 -27 -3 -29 -6z"/>
<path d="M4875 4581 c-3 -5 -2 -12 3 -15 5 -3 9 1 9 9 0 17 -3 19 -12 6z"/>
<path d="M4908 4583 c10 -4 10 -8 0 -21 -12 -15 -11 -16 4 -3 19 14 15 32 -5
30 -8 0 -8 -2 1 -6z"/>
<path d="M5290 4580 c0 -5 5 -10 11 -10 5 0 7 5 4 10 -3 6 -8 10 -11 10 -2 0
-4 -4 -4 -10z"/>
<path d="M5496 4578 c3 -5 10 -6 15 -3 13 9 11 12 -6 12 -8 0 -12 -4 -9 -9z"/>
<path d="M4994 4571 c4 -6 3 -17 -3 -24 -7 -9 -5 -13 8 -13 19 0 18 31 -2 43
-6 3 -7 1 -3 -6z"/>
<path d="M4835 4561 c-3 -5 -2 -12 3 -15 5 -3 9 1 9 9 0 17 -3 19 -12 6z"/>
<path d="M5135 4559 c-4 -6 -5 -12 -2 -15 2 -3 7 2 10 11 7 17 1 20 -8 4z"/>
<path d="M5175 4560 c-3 -5 -1 -10 4 -10 6 0 11 5 11 10 0 6 -2 10 -4 10 -3 0
-8 -4 -11 -10z"/>
<path d="M5200 4566 c0 -2 7 -7 16 -10 8 -3 12 -2 9 4 -6 10 -25 14 -25 6z"/>
<path d="M5255 4561 c-3 -5 0 -13 6 -17 7 -4 9 -3 5 4 -3 5 0 13 6 15 9 4 10
6 1 6 -6 1 -14 -3 -18 -8z"/>
<path d="M5090 4545 c5 -22 -1 -29 -11 -15 -8 12 -10 12 -7 1 5 -18 37 -23 34
-5 -1 7 -6 17 -10 21 -4 4 -7 4 -6 -2z"/>
<path d="M5196 4542 c-3 -5 1 -9 9 -9 8 0 12 4 9 9 -3 4 -7 8 -9 8 -2 0 -6 -4
-9 -8z"/>
<path d="M5287 4539 c7 -7 15 -10 18 -7 3 3 -2 9 -12 12 -14 6 -15 5 -6 -5z"/>
<path d="M5415 4540 c3 -5 8 -10 11 -10 2 0 4 5 4 10 0 6 -5 10 -11 10 -5 0
-7 -4 -4 -10z"/>
<path d="M5225 4520 c-3 -6 1 -7 9 -4 18 7 21 14 7 14 -6 0 -13 -4 -16 -10z"/>
<path d="M5310 4505 c0 -7 30 -13 34 -7 3 4 -4 9 -15 9 -10 1 -19 0 -19 -2z"/>
<path d="M4996 4482 c-3 -5 1 -9 9 -9 8 0 12 4 9 9 -3 4 -7 8 -9 8 -2 0 -6 -4
-9 -8z"/>
<path d="M1948 4190 c-221 -39 -408 -188 -495 -395 l-22 -50 -323 -1 c-301 -1
-326 -2 -368 -21 -85 -38 -137 -112 -147 -209 -5 -47 -2 -62 26 -116 35 -70
82 -112 145 -130 26 -7 159 -12 366 -13 179 -1 328 -3 333 -3 4 -1 7 -9 7 -17
0 -8 5 -15 10 -15 6 0 10 -7 10 -15 0 -8 5 -15 11 -15 5 0 8 -4 5 -9 -4 -5 -3
-11 2 -13 4 -1 23 -23 42 -48 19 -25 43 -51 52 -58 10 -7 15 -18 12 -24 -4 -6
-2 -8 4 -4 6 3 21 -4 34 -16 13 -13 55 -39 93 -58 39 -19 73 -39 77 -45 4 -5
8 -6 8 -1 0 5 7 3 15 -4 13 -11 13 -15 3 -22 -10 -7 -10 -8 2 -5 8 2 14 10 13
16 -3 13 10 15 21 4 8 -8 13 -10 44 -12 11 0 24 -11 31 -23 10 -21 11 -21 6
-2 -4 17 -1 21 17 20 13 -1 28 -4 33 -8 6 -3 31 -5 58 -3 34 3 46 0 41 -8 -3
-7 0 -5 8 3 14 17 48 23 48 9 0 -5 5 -9 11 -9 5 0 8 4 5 9 -7 11 41 24 54 16
6 -4 10 -2 10 2 0 11 57 33 65 25 10 -11 35 -11 35 0 0 6 -7 8 -15 4 -8 -3
-15 -1 -15 3 0 15 27 20 40 8 10 -9 11 -9 6 0 -8 14 10 27 25 17 8 -4 7 -9 -2
-15 -11 -7 -10 -9 4 -9 19 0 22 11 6 27 -8 8 -8 13 0 17 6 4 11 5 11 2 0 -3
12 6 26 19 15 14 31 22 36 19 4 -3 7 -1 6 4 -4 15 43 53 56 45 6 -3 8 -3 4 2
-4 4 4 21 17 37 14 16 25 34 25 39 0 5 5 8 12 6 7 -1 12 3 13 10 0 7 7 20 15
30 17 19 20 27 20 44 0 5 5 7 10 4 6 -3 10 0 10 8 0 13 228 15 1768 15 1412 0
1776 2 1810 13 57 17 125 78 147 131 53 130 -9 277 -136 322 -48 18 -133 19
-1804 18 l-1754 0 -16 37 c-97 216 -269 362 -480 407 -44 9 -203 12 -247 4z"/>
<path d="M1515 3080 c3 -5 8 -10 11 -10 2 0 4 5 4 10 0 6 -5 10 -11 10 -5 0
-7 -4 -4 -10z"/>
<path d="M2555 3040 c-3 -5 -1 -10 4 -10 6 0 11 5 11 10 0 6 -2 10 -4 10 -3 0
-8 -4 -11 -10z"/>
<path d="M1635 2980 c3 -5 8 -10 11 -10 2 0 4 5 4 10 0 6 -5 10 -11 10 -5 0
-7 -4 -4 -10z"/>
<path d="M2439 2988 c-6 -22 -5 -38 3 -38 6 0 8 6 5 14 -3 8 -1 17 6 20 9 3 9
5 0 5 -7 1 -13 0 -14 -1z"/>
<path d="M1776 2927 c3 -10 9 -15 12 -12 3 3 0 11 -7 18 -10 9 -11 8 -5 -6z"/>
<path d="M2410 2899 c0 -5 5 -7 10 -4 6 3 10 8 10 11 0 2 -4 4 -10 4 -5 0 -10
-5 -10 -11z"/>
<path d="M1633 2885 c0 -8 4 -12 9 -9 5 3 6 10 3 15 -9 13 -12 11 -12 -6z"/>
<path d="M1775 2889 c-4 -6 -5 -12 -2 -15 2 -3 7 2 10 11 7 17 1 20 -8 4z"/>
<path d="M2375 2891 c-3 -5 -2 -12 3 -15 5 -3 9 1 9 9 0 17 -3 19 -12 6z"/>
<path d="M2260 2883 c0 -5 13 -8 30 -8 34 -1 31 8 -5 12 -14 2 -25 0 -25 -4z"/>
<path d="M1867 2867 c-3 -7 3 -13 14 -13 13 0 15 3 7 13 -6 7 -12 13 -13 13
-2 0 -5 -6 -8 -13z"/>
<path d="M1916 2861 c-3 -4 4 -17 17 -27 l22 -19 -20 24 c-18 22 -18 24 -2 18
11 -4 16 -3 12 3 -8 12 -22 13 -29 1z"/>
<path d="M2135 2860 c-3 -6 1 -13 10 -16 13 -5 13 -9 3 -23 -10 -13 -10 -14 2
-4 20 18 22 43 2 36 -10 -4 -13 -2 -8 5 4 7 5 12 2 12 -3 0 -8 -5 -11 -10z"/>
<path d="M2195 2861 c-9 -15 15 -25 28 -12 9 9 7 10 -7 5 -13 -5 -17 -4 -12 4
4 7 5 12 2 12 -3 0 -7 -4 -11 -9z"/>
<path d="M1994 2849 c-3 -6 2 -18 12 -27 17 -16 17 -16 5 0 -7 9 -10 22 -6 28
3 5 4 10 1 10 -3 0 -8 -5 -12 -11z"/>
<path d="M2031 2851 c-8 -5 -9 -11 -3 -15 5 -3 12 1 16 9 6 17 6 18 -13 6z"/>
<path d="M2099 2833 c-12 -16 -12 -17 2 -6 9 7 20 9 24 5 5 -4 5 -1 1 6 -9 16
-11 15 -27 -5z"/>
<path d="M2295 2820 c3 -5 8 -10 11 -10 2 0 4 5 4 10 0 6 -5 10 -11 10 -5 0
-7 -4 -4 -10z"/>
<path d="M1976 2807 c3 -10 9 -15 12 -12 3 3 0 11 -7 18 -10 9 -11 8 -5 -6z"/>
<path d="M1930 2800 c0 -5 5 -10 11 -10 5 0 7 5 4 10 -3 6 -8 10 -11 10 -2 0
-4 -4 -4 -10z"/>
<path d="M2175 2791 c-3 -5 -2 -12 3 -15 5 -3 9 1 9 9 0 17 -3 19 -12 6z"/>
<path d="M1986 2758 c3 -5 10 -6 15 -3 13 9 11 12 -6 12 -8 0 -12 -4 -9 -9z"/>
<path d="M3734 2430 c-191 -50 -346 -173 -432 -345 -16 -33 -32 -67 -34 -75
-4 -13 -151 -15 -1244 -16 -1227 0 -1239 -1 -1285 -21 -143 -64 -191 -238
-100 -363 33 -45 47 -57 101 -82 l45 -22 1253 0 c1236 -1 1254 -1 1268 -21 8
-11 12 -26 9 -34 -3 -9 -3 -12 1 -8 8 7 60 -63 56 -75 -1 -5 2 -8 8 -8 5 0 18
-10 30 -22 15 -17 17 -24 8 -30 -10 -7 -9 -8 2 -7 23 3 50 -12 50 -28 0 -8 5
-11 10 -8 6 3 10 1 10 -5 0 -6 5 -8 12 -4 8 5 9 2 5 -10 -4 -10 -3 -15 3 -11
8 5 64 -19 80 -35 7 -7 69 -30 115 -43 22 -5 43 -15 47 -21 4 -6 10 -7 14 -3
4 4 14 1 22 -6 10 -7 13 -8 9 -1 -5 9 2 10 26 5 17 -4 51 -6 74 -5 24 1 40 -2
37 -7 -3 -5 0 -9 5 -9 6 0 11 8 11 17 0 15 2 14 15 -3 15 -19 15 -19 8 1 -3
11 -3 17 1 14 5 -5 42 1 126 22 8 2 14 -1 15 -8 0 -6 4 -15 9 -20 6 -5 6 -2 1
6 -6 10 -4 13 7 9 8 -4 15 -1 15 7 0 8 -7 11 -16 8 -12 -5 -13 -3 -5 6 6 7 21
13 33 14 11 1 21 5 21 9 0 4 8 5 18 1 9 -3 14 -2 10 2 -8 9 121 101 135 97 5
-1 6 1 3 6 -6 11 48 65 56 56 3 -3 5 1 5 8 -1 7 18 43 42 80 l45 67 859 0
c845 1 859 1 905 21 124 55 178 181 130 307 -23 62 -87 124 -147 142 -30 9
-252 12 -879 12 l-839 0 -47 94 c-87 175 -257 310 -443 351 -72 15 -229 12
-299 -6z"/>
<path d="M3417 1275 c-4 -8 -3 -16 1 -19 4 -3 9 4 9 15 2 23 -3 25 -10 4z"/>
<path d="M4295 1249 c-4 -6 -5 -12 -2 -15 2 -3 7 2 10 11 7 17 1 20 -8 4z"/>
<path d="M4240 1206 c7 -7 13 -7 20 0 6 6 3 10 -10 10 -13 0 -16 -4 -10 -10z"/>
<path d="M4293 1192 c-1 -22 0 -24 9 -8 6 10 6 22 2 26 -5 5 -10 -3 -11 -18z"/>
<path d="M3430 1179 c0 -5 5 -7 10 -4 6 3 10 8 10 11 0 2 -4 4 -10 4 -5 0 -10
-5 -10 -11z"/>
<path d="M3490 1186 c0 -2 7 -7 16 -10 8 -3 12 -2 9 4 -6 10 -25 14 -25 6z"/>
<path d="M3615 1171 c-3 -6 -15 -8 -27 -6 -11 3 -18 1 -14 -2 12 -13 35 -11
47 3 6 8 9 14 6 14 -3 0 -8 -4 -12 -9z"/>
<path d="M3640 1166 c0 -2 8 -10 18 -17 15 -13 16 -12 3 4 -13 16 -21 21 -21
13z"/>
<path d="M4166 1157 c3 -10 9 -15 12 -12 3 3 0 11 -7 18 -10 9 -11 8 -5 -6z"/>
<path d="M3630 1141 c0 -6 4 -13 10 -16 6 -3 7 1 4 9 -7 18 -14 21 -14 7z"/>
<path d="M4033 1108 c1 -19 7 -35 14 -35 7 0 9 5 5 11 -3 6 -8 20 -9 30 -6 34
-12 30 -10 -6z"/>
<path d="M4067 1127 c-3 -8 5 -12 24 -12 15 -1 26 2 23 5 -3 3 -9 5 -12 5 -4
0 -12 4 -18 8 -7 4 -14 1 -17 -6z"/>
<path d="M3710 1126 c0 -2 7 -6 15 -10 8 -3 15 -1 15 4 0 6 -7 10 -15 10 -8 0
-15 -2 -15 -4z"/>
<path d="M3995 1119 c-4 -6 -5 -12 -2 -15 2 -3 7 2 10 11 7 17 1 20 -8 4z"/>
<path d="M4156 1118 c3 -5 10 -6 15 -3 13 9 11 12 -6 12 -8 0 -12 -4 -9 -9z"/>
<path d="M3759 1115 c-1 -3 -2 -8 -3 -12 -1 -5 -5 -15 -10 -23 -7 -12 -6 -13
4 -3 13 12 23 43 14 43 -2 0 -5 -2 -5 -5z"/>
<path d="M3870 1110 c0 -5 5 -10 11 -10 5 0 7 5 4 10 -3 6 -8 10 -11 10 -2 0
-4 -4 -4 -10z"/>
<path d="M3615 1100 c3 -5 8 -10 11 -10 2 0 4 5 4 10 0 6 -5 10 -11 10 -5 0
-7 -4 -4 -10z"/>
<path d="M3707 1099 c7 -7 15 -10 18 -7 3 3 -2 9 -12 12 -14 6 -15 5 -6 -5z"/>
<path d="M3948 1093 c6 -2 9 -10 6 -15 -4 -7 -2 -8 5 -4 13 9 5 26 -12 25 -9
0 -8 -2 1 -6z"/>
<path d="M3676 1073 c-6 -14 -5 -15 5 -6 7 7 10 15 7 18 -3 3 -9 -2 -12 -12z"/>
<path d="M3850 1082 c0 -5 7 -9 15 -9 8 0 12 4 9 9 -3 4 -9 8 -15 8 -5 0 -9
-4 -9 -8z"/>
<path d="M3853 1045 c0 -8 4 -12 9 -9 5 3 6 10 3 15 -9 13 -12 11 -12 -6z"/>
<path d="M4076 1047 c3 -10 9 -15 12 -12 3 3 0 11 -7 18 -10 9 -11 8 -5 -6z"/>
<path d="M3747 1039 c7 -7 15 -10 18 -7 3 3 -2 9 -12 12 -14 6 -15 5 -6 -5z"/>
<path d="M3930 1039 c0 -5 5 -7 10 -4 6 3 10 8 10 11 0 2 -4 4 -10 4 -5 0 -10
-5 -10 -11z"/>
</g>
</svg>
