<?xml version="1.0" encoding="iso-8859-1"?>
<!-- Generator: Adobe Illustrator 23.0.2, SVG Export Plug-In . SVG Version: 6.00 Build 0)  -->
<svg version="1.1" id="Layer_1" xmlns="http://www.w3.org/2000/svg" xmlns:xlink="http://www.w3.org/1999/xlink" x="0px" y="0px"
	 viewBox="0 0 19.1576843 19.1992493" enable-background="new 0 0 19.1576843 19.1992493" xml:space="preserve">
<g id="Regular-M" transform="matrix(1 0 0 1 360.193 392)">
	<path d="M-350.6099854-373.8007507c4.7148743,0,8.5746765-3.8681641,8.5746765-8.5996094S-345.8951111-391-350.6099854-391
		c-4.7231445,0-8.5830078,3.8681946-8.5830078,8.5996399S-355.3331299-373.8007507-350.6099854-373.8007507z
		 M-350.6099854-375.1537781c-4.0424805,0-7.1801758-3.2290039-7.1801758-7.246582s3.1376953-7.2382507,7.1801758-7.2382507
		c4.0341797,0,7.171875,3.2206726,7.171875,7.2382507S-346.5758057-375.1537781-350.6099854-375.1537781z M-348.5265198-378.6816101
		c1.4609985,0,2.4985962-0.9379883,2.4985962-2.5566406c0-1.5024414-1.0541992-2.3325195-2.2080994-2.3325195
		c-0.9960022,0-1.5687866,0.5229492-1.801178,1.1123047h-0.0664062v-0.0913086c0-1.668457,0.6889038-2.7226562,1.7015991-2.7226562
		c0.5229797,0,0.8881836,0.2490234,1.1040039,0.589386c0.1743774,0.2158203,0.2988892,0.3320007,0.5561829,0.3320007
		c0.2407227,0,0.4233093-0.1826172,0.4233093-0.4731445c0-0.1162109-0.0166016-0.2241211-0.0581055-0.3320312
		c-0.2406921-0.5976562-0.9545898-1.1123047-1.9755859-1.1123047c-1.7265015,0-2.7973328,1.3198242-2.7973328,3.9926758
		c0,1.0874023,0.1826172,1.8759766,0.4731445,2.4155273C-350.1949158-379.0219421-349.3981018-378.6816101-348.5265198-378.6816101z
		 M-353.2247314-378.7729187c0.3652344,0,0.5561523-0.2490234,0.5561523-0.5976257v-6.1011047
		c0-0.456543-0.2241211-0.722168-0.6142578-0.722168c-0.265625,0-0.456543,0.0913086-0.7719727,0.3154297l-1.3364258,0.9047852
		c-0.1826172,0.1245117-0.2905273,0.2822266-0.2905273,0.5063782c0,0.2987976,0.2407227,0.53125,0.4980469,0.53125
		c0.1411133,0,0.2241211-0.0166321,0.4233398-0.1660461l0.9462891-0.6972656h0.0581055v5.4287415
		C-353.7559814-379.0302429-353.5733643-378.7729187-353.2247314-378.7729187z M-348.5846252-379.6362
		c-0.8217773,0-1.4194031-0.6474609-1.4194031-1.5522461c0-0.871582,0.589325-1.4941406,1.4277039-1.4941406
		c0.8467102,0,1.4194031,0.6142578,1.4194031,1.5024414C-347.1569214-380.242157-347.7130127-379.6362-348.5846252-379.6362z"/>
</g>
</svg>
